<svg width="70" height="77" viewBox="0 0 70 77" fill="none" xmlns="http://www.w3.org/2000/svg">
<path d="M12.5 19.5H45M12.5 36H45M12.5 52H28" stroke="#022775" stroke-width="3" stroke-linecap="round" stroke-linejoin="round"/>
<path d="M58.5 40V7C58.5 4.23858 56.2614 2 53.5 2H7C4.23858 2 2 4.23858 2 7V62C2 64.7614 4.23858 67 7 67H38.5" stroke="#022775" stroke-width="3" stroke-linecap="round" stroke-linejoin="round"/>
<path d="M69.9797 52.6037L68.0661 62.8887C67.9082 63.7394 67.4496 64.509 66.7703 65.0631C66.091 65.6171 65.2342 65.9204 64.3494 65.9201H46.0949L46.7816 69.6118H63.7037C64.5062 69.6114 65.2879 69.8607 65.9358 70.3234C66.5837 70.7861 67.0641 71.4383 67.3073 72.1856C67.5506 72.9329 67.5442 73.7365 67.289 74.48C67.0339 75.2235 66.5432 75.8683 65.888 76.3211C65.2328 76.7739 64.4472 77.0112 63.6448 76.9986C62.8424 76.986 62.065 76.7241 61.425 76.251C60.7851 75.7778 60.3159 75.1179 60.0853 74.3668C59.8547 73.6156 59.8748 72.8123 60.1425 72.073H50.8945C51.1164 72.684 51.1697 73.3414 51.0491 73.9789C50.9285 74.6165 50.6382 75.2118 50.2075 75.7049C49.7767 76.198 49.2207 76.5716 48.5953 76.7881C47.9699 77.0046 47.2972 77.0563 46.6449 76.9381C45.9926 76.8199 45.3836 76.5359 44.8792 76.1147C44.3748 75.6935 43.9928 75.1499 43.7717 74.5386C43.5505 73.9274 43.4979 73.27 43.6193 72.6325C43.7406 71.9951 44.0315 71.4002 44.4629 70.9075L40.1006 47.4612H37.2593C36.9253 47.4612 36.605 47.3315 36.3688 47.1008C36.1327 46.87 36 46.557 36 46.2306C36 45.9042 36.1327 45.5912 36.3688 45.3604C36.605 45.1297 36.9253 45 37.2593 45H40.1005C40.6904 44.9997 41.2616 45.2019 41.7146 45.5713C42.1675 45.9406 42.4732 46.4537 42.5785 47.0209L43.3473 51.153H68.7407C68.9252 51.153 69.1074 51.1926 69.2744 51.2689C69.4415 51.3453 69.5893 51.4567 69.7075 51.595C69.8257 51.7334 69.9114 51.8955 69.9584 52.0698C70.0054 52.2441 70.0127 52.4263 69.9797 52.6037V52.6037Z" fill="#012875"/>
</svg>
