<svg width="85" height="85" viewBox="0 0 85 85" fill="none" xmlns="http://www.w3.org/2000/svg">
<path fill-rule="evenodd" clip-rule="evenodd" d="M67.9298 72.7266C58.397 52.7763 28.3871 50.5578 17.1021 72.7534C8.48004 65.5075 3 54.6437 3 42.5C3 20.6848 20.6848 3 42.5 3C64.3152 3 82 20.6848 82 42.5C82 54.6288 76.5335 65.4808 67.9298 72.7266ZM42.5 85C65.9721 85 85 65.9721 85 42.5C85 19.0279 65.9721 0 42.5 0C19.0279 0 0 19.0279 0 42.5C0 65.9721 19.0279 85 42.5 85ZM33.3331 24.6965C36.0465 22.9384 39.2366 22 42.5 22C46.8761 22 51.0729 23.6857 54.1673 26.6863C57.2616 29.6869 59 33.7565 59 38C59 41.1645 58.0323 44.2579 56.2192 46.8891C54.4062 49.5203 51.8293 51.5711 48.8143 52.7821C45.7993 53.9931 42.4817 54.3099 39.281 53.6926C36.0803 53.0752 33.1403 51.5513 30.8327 49.3137C28.5252 47.0761 26.9537 44.2251 26.3171 41.1214C25.6804 38.0177 26.0071 34.8007 27.256 31.8771C28.5048 28.9534 30.6197 26.4546 33.3331 24.6965Z" fill="#012875"/>
</svg>
