<svg width="51" height="53" viewBox="0 0 51 53" fill="none" xmlns="http://www.w3.org/2000/svg">
<path d="M45.7244 32.5028H14.1903L11.0369 13.5824H48.8778L45.7244 32.5028Z" fill="#CCD6DD"/>
<path d="M48.8526 40.3864H14.1651C12.4402 40.3864 11.0369 38.9815 11.0369 37.2582C11.0369 35.5348 12.4654 34.0795 14.1903 34.0795L14.2014 34.078L14.214 34.0795H45.7244C46.0976 34.0794 46.4587 33.9468 46.7434 33.7055C47.028 33.4641 47.2179 33.1296 47.2791 32.7614L50.4325 13.841C50.4709 13.6151 50.4594 13.3835 50.3989 13.1625C50.3384 12.9415 50.2303 12.7364 50.0822 12.5616C49.9341 12.3868 49.7496 12.2464 49.5415 12.1504C49.3335 12.0544 49.107 12.005 48.8778 12.0057H12.3251L10.6853 2.28372C10.6226 1.93188 10.4407 1.61231 10.1703 1.37863C9.89985 1.14495 9.5573 1.01137 9.20007 1.00028C9.17484 0.995554 9.1575 0.96875 9.13227 0.96875H1.5767C1.15854 0.96875 0.757495 1.13487 0.461806 1.43056C0.166117 1.72625 0 2.12729 0 2.54545C0 2.96362 0.166117 3.36466 0.461806 3.66035C0.757495 3.95604 1.15854 4.12216 1.5767 4.12216H7.79838L12.3756 31.2667C9.7866 32.044 7.88352 34.4201 7.88352 37.2582C7.88561 38.9235 8.54809 40.5201 9.72566 41.6976C10.9032 42.8752 12.4998 43.5377 14.1651 43.5398H48.8526C49.2708 43.5398 49.6718 43.3737 49.9675 43.078C50.2632 42.7823 50.4293 42.3812 50.4293 41.9631C50.4293 41.5449 50.2632 41.1439 49.9675 40.8482C49.6718 40.5525 49.2708 40.3864 48.8526 40.3864ZM45.4406 24.6193H40.2265L40.6569 21.4659H45.9641L45.4406 24.6193ZM37.0431 24.6193H31.5341V21.4659H37.4735L37.0431 24.6193ZM28.3807 24.6193H22.8717L22.4412 21.4659H28.3807V24.6193ZM19.6899 24.6193H14.4757L13.9507 21.4659H19.2594L19.6899 24.6193ZM15.5258 30.9261L15.0008 27.7727H20.1203L20.5508 30.9261H15.5258ZM23.7341 30.9261L23.3037 27.7727H28.3807V30.9261H23.7341ZM31.5341 30.9261V27.7727H36.6111L36.1806 30.9261H31.5341ZM39.3656 30.9261L39.796 27.7727H44.9156L44.3905 30.9261H39.3656ZM47.0158 15.1591L46.4907 18.3125H41.0889L41.5194 15.1591H47.0158ZM38.336 15.1591L37.9056 18.3125H31.5341V15.1591H38.336ZM28.3807 15.1591V18.3125H22.0092L21.5788 15.1591H28.3807ZM18.3954 15.1591L18.8259 18.3125H13.4225L12.8974 15.1591H18.3954Z" fill="#012875"/>
<path d="M18.9205 51.4232C21.5329 51.4232 23.6506 49.3055 23.6506 46.6931C23.6506 44.0808 21.5329 41.963 18.9205 41.963C16.3081 41.963 14.1904 44.0808 14.1904 46.6931C14.1904 49.3055 16.3081 51.4232 18.9205 51.4232Z" fill="#E1E8ED"/>
<path d="M18.9205 53C15.4423 53 12.6136 50.1714 12.6136 46.6932C12.6136 43.215 15.4423 40.3864 18.9205 40.3864C22.3987 40.3864 25.2273 43.215 25.2273 46.6932C25.2273 50.1714 22.3987 53 18.9205 53ZM18.9205 43.5398C17.1814 43.5398 15.7671 44.9541 15.7671 46.6932C15.7671 48.4323 17.1814 49.8466 18.9205 49.8466C20.6596 49.8466 22.0739 48.4323 22.0739 46.6932C22.0739 44.9541 20.6596 43.5398 18.9205 43.5398Z" fill="#012875"/>
<path d="M40.9943 51.4232C43.6067 51.4232 45.7244 49.3055 45.7244 46.6931C45.7244 44.0808 43.6067 41.963 40.9943 41.963C38.382 41.963 36.2642 44.0808 36.2642 46.6931C36.2642 49.3055 38.382 51.4232 40.9943 51.4232Z" fill="#E1E8ED"/>
<path d="M40.9943 53C37.5161 53 34.6875 50.1714 34.6875 46.6932C34.6875 43.215 37.5161 40.3864 40.9943 40.3864C44.4725 40.3864 47.3011 43.215 47.3011 46.6932C47.3011 50.1714 44.4725 53 40.9943 53ZM40.9943 43.5398C39.2552 43.5398 37.8409 44.9541 37.8409 46.6932C37.8409 48.4323 39.2552 49.8466 40.9943 49.8466C42.7334 49.8466 44.1477 48.4323 44.1477 46.6932C44.1477 44.9541 42.7334 43.5398 40.9943 43.5398Z" fill="#012875"/>
</svg>
