<svg width="50" height="46" viewBox="0 0 50 46" fill="none" xmlns="http://www.w3.org/2000/svg">
<path d="M25.6629 11.9336L41.666 27.5271V44.357C41.666 44.7927 41.5197 45.2106 41.2592 45.5188C40.9988 45.8269 40.6456 46 40.2772 46L30.5505 45.9702C30.1834 45.968 29.832 45.794 29.573 45.4861C29.3141 45.1782 29.1687 44.7615 29.1687 44.3272V34.4987C29.1687 34.063 29.0224 33.645 28.7619 33.3369C28.5015 33.0288 28.1483 32.8557 27.7799 32.8557H22.2248C21.8565 32.8557 21.5032 33.0288 21.2428 33.3369C20.9823 33.645 20.836 34.063 20.836 34.4987V44.32C20.8366 44.5362 20.8011 44.7504 20.7316 44.9503C20.662 45.1503 20.5598 45.332 20.4308 45.4851C20.3018 45.6382 20.1485 45.7597 19.9797 45.8426C19.8109 45.9255 19.63 45.9682 19.4472 45.9682L9.72403 46C9.3557 46 9.00245 45.8269 8.742 45.5188C8.48156 45.2106 8.33524 44.7927 8.33524 44.357V27.5158L24.3349 11.9336C24.523 11.7542 24.7573 11.6564 24.9989 11.6564C25.2405 11.6564 25.4748 11.7542 25.6629 11.9336ZM0.384464 22.5322L7.64085 15.4559V1.23228C7.64085 0.905459 7.75059 0.592024 7.94592 0.360927C8.14126 0.129829 8.40619 0 8.68244 0H13.5432C13.8194 0 14.0844 0.129829 14.2797 0.360927C14.475 0.592024 14.5848 0.905459 14.5848 1.23228V8.6886L22.3559 1.12446C23.1016 0.398416 24.0374 0.00145136 25.0032 0.00145136C25.969 0.00145136 26.9048 0.398416 27.6506 1.12446L49.622 22.5322C49.7275 22.6354 49.8147 22.7621 49.8788 22.9051C49.9429 23.0482 49.9825 23.2048 49.9954 23.3659C50.0083 23.5271 49.9942 23.6897 49.954 23.8444C49.9137 23.9992 49.8481 24.143 49.7609 24.2677L47.5475 27.4511C47.4605 27.5763 47.3535 27.6799 47.2326 27.756C47.1117 27.8322 46.9793 27.8794 46.843 27.895C46.7066 27.9105 46.569 27.8941 46.4381 27.8467C46.3071 27.7992 46.1853 27.7217 46.0797 27.6185L25.6629 7.72332C25.4748 7.54394 25.2405 7.44613 24.9989 7.44613C24.7573 7.44613 24.523 7.54394 24.3349 7.72332L3.91718 27.6185C3.81176 27.7217 3.69018 27.7993 3.55939 27.8469C3.42861 27.8945 3.29118 27.9112 3.15495 27.8959C3.01873 27.8806 2.88638 27.8338 2.76546 27.758C2.64455 27.6822 2.53745 27.579 2.45028 27.4542L0.236908 24.2708C0.149761 24.1453 0.0844269 24.0008 0.0446663 23.8454C0.00490189 23.69 -0.00850296 23.5268 0.00520706 23.3652C0.0189209 23.2037 0.0594864 23.0469 0.124573 22.904C0.189659 22.761 0.277981 22.6347 0.384464 22.5322Z" fill="#012875"/>
</svg>
