<svg width="50" height="53" viewBox="0 0 50 53" fill="none" xmlns="http://www.w3.org/2000/svg">
<path d="M23.396 52.5406C24.3818 52.5179 25.3278 52.1472 26.0667 51.4943C26.8056 50.8413 27.2898 49.948 27.4335 48.9725H19.2019C19.3498 49.9745 19.8566 50.8888 20.628 51.5451C21.3995 52.2014 22.3832 52.5552 23.396 52.5406Z" fill="white"/>
<path d="M46.1034 42.4464C44.5943 41.1011 43.2731 39.5588 42.1753 37.8611C40.9769 35.5177 40.2587 32.9585 40.0627 30.3337V22.6029C40.0563 21.6638 39.9726 20.7269 39.8123 19.8016C38.5805 19.5554 37.3967 19.1115 36.3068 18.4871C36.7223 19.8248 36.9333 21.2177 36.9328 22.6185V30.3494C37.1246 33.5513 38.0054 36.6741 39.5149 39.5043C40.5954 41.2164 41.8774 42.7926 43.3334 44.1991H3.25509C4.71113 42.7926 5.99312 41.2164 7.07356 39.5043C8.58313 36.6741 9.46391 33.5513 9.65573 30.3494V22.6029C9.64749 20.7917 9.99658 18.9968 10.683 17.3207C11.3695 15.6447 12.3798 14.1205 13.6561 12.8355C14.9324 11.5505 16.4496 10.5298 18.121 9.83198C19.7923 9.13414 21.5848 8.77283 23.396 8.76873C26.0466 8.77085 28.6378 9.55473 30.8451 11.0223C30.6018 10.1286 30.4652 9.20935 30.4382 8.2836V7.29768C28.8042 6.49386 27.0488 5.96511 25.2426 5.73273V3.7609C25.2426 3.20681 25.0225 2.67541 24.6307 2.28361C24.2389 1.8918 23.7075 1.67169 23.1534 1.67169C22.5993 1.67169 22.0679 1.8918 21.6761 2.28361C21.2843 2.67541 21.0642 3.20681 21.0642 3.7609V5.81098C17.0199 6.38149 13.3186 8.39587 10.6436 11.4822C7.96851 14.5686 6.50037 18.5186 6.51018 22.6029V30.3337C6.31418 32.9585 5.5959 35.5177 4.3975 37.8611C3.31907 39.5549 2.01909 41.097 0.532082 42.4464C0.365152 42.5931 0.231364 42.7736 0.139621 42.976C0.0478772 43.1783 0.000281372 43.3979 0 43.6201V45.7484C0 46.1635 0.164878 46.5615 0.458362 46.855C0.751847 47.1485 1.1499 47.3134 1.56495 47.3134H45.0705C45.4855 47.3134 45.8836 47.1485 46.1771 46.855C46.4706 46.5615 46.6354 46.1635 46.6354 45.7484V43.6201C46.6352 43.3979 46.5876 43.1783 46.4958 42.976C46.4041 42.7736 46.2703 42.5931 46.1034 42.4464Z" fill="white"/>
<path d="M42.1752 16.1085C46.4967 16.1085 50 12.6053 50 8.28378C50 3.9623 46.4967 0.459045 42.1752 0.459045C37.8537 0.459045 34.3505 3.9623 34.3505 8.28378C34.3505 12.6053 37.8537 16.1085 42.1752 16.1085Z" fill="#FE0000"/>
</svg>
