<svg width="41" height="51" viewBox="0 0 41 51" fill="none" xmlns="http://www.w3.org/2000/svg">
<path fill-rule="evenodd" clip-rule="evenodd" d="M12.8889 6.44444C12.8889 3.98985 14.8787 2 17.3333 2H22.7778C25.2324 2 27.2222 3.98985 27.2222 6.44444V6.44623C27.2213 8.90001 25.2318 10.8889 22.7778 10.8889H17.3333C14.8787 10.8889 12.8889 8.89904 12.8889 6.44444ZM10.966 5.44444H6.44444C4.73527 5.44444 3.0961 6.12341 1.88753 7.33198C0.678966 8.54055 0 10.1797 0 11.8889V44.5556C0 46.2647 0.678966 47.9039 1.88753 49.1125C3.0961 50.321 4.73527 51 6.44444 51H21H21.9529H32C36.4183 51 40 47.4183 40 43V23.2364C40.071 23.099 40.1111 22.9431 40.1111 22.7778V11.8889C40.1111 10.1797 39.4321 8.54055 38.2236 7.33198C37.015 6.12341 35.3758 5.44444 33.6667 5.44444H29.1451C28.6646 2.36016 25.9968 0 22.7778 0H17.3333C14.1143 0 11.4465 2.36016 10.966 5.44444ZM38.1111 22V11.8889C38.1111 10.7101 37.6429 9.57969 36.8094 8.74619C35.9759 7.9127 34.8454 7.44444 33.6667 7.44444H29.1451C28.6646 10.5287 25.9968 12.8889 22.7778 12.8889H17.3333C14.1143 12.8889 11.4465 10.5287 10.966 7.44444H6.44444C5.2657 7.44444 4.13524 7.9127 3.30175 8.74619C2.46825 9.57969 2 10.7101 2 11.8889V44.5556C2 45.7343 2.46825 46.8648 3.30175 47.6982C4.13524 48.5317 5.26571 49 6.44444 49H21H21.9529H32C35.3137 49 38 46.3137 38 43V22H38.1111ZM8 23C8 22.4477 8.44772 22 9 22L20 22H31C31.5523 22 32 22.4477 32 23C32 23.5523 31.5523 24 31 24H20L9 24C8.44771 24 8 23.5523 8 23ZM13 30C12.4477 30 12 30.4477 12 31C12 31.5523 12.4477 32 13 32H20H27C27.5523 32 28 31.5523 28 31C28 30.4477 27.5523 30 27 30L20 30H13ZM15 39C15 38.4477 15.4477 38 16 38H24.1667C24.719 38 25.1667 38.4477 25.1667 39C25.1667 39.5523 24.719 40 24.1667 40H16C15.4477 40 15 39.5523 15 39Z" fill="#012875"/>
</svg>
