<svg width="38" height="38" viewBox="0 0 38 38" fill="none" xmlns="http://www.w3.org/2000/svg">
<path d="M36.7016 30.421L30.2824 23.9926L25.345 21.9498C26.989 19.6086 27.8698 16.8154 27.8666 13.9533C27.8666 6.25938 21.6162 0 13.9333 0C6.25043 0 0 6.25938 0 13.9533C0 21.6471 6.25043 27.9065 13.9333 27.9065C16.8163 27.9098 19.6284 27.0125 21.9781 25.3397L24.0127 30.2709L30.4316 36.6995C30.8433 37.1118 31.332 37.4389 31.8699 37.662C32.4077 37.8851 32.9842 38 33.5665 38C34.1487 38 34.7252 37.8852 35.2631 37.6621C35.8009 37.439 36.2897 37.112 36.7014 36.6997C37.1131 36.2875 37.4397 35.798 37.6625 35.2594C37.8853 34.7207 38 34.1434 38 33.5604C38 32.9773 37.8854 32.4 37.6626 31.8613C37.4398 31.3227 37.1133 30.8332 36.7016 30.421V30.421ZM2.53333 13.9533C2.53333 7.65844 7.64748 2.53696 13.9333 2.53696C20.2191 2.53696 25.3333 7.65844 25.3333 13.9533C25.3333 20.2481 20.2191 25.3696 13.9333 25.3696C7.64748 25.3696 2.53333 20.2481 2.53333 13.9533ZM34.9101 34.9057C34.5535 35.262 34.0703 35.4621 33.5666 35.4621C33.0628 35.4621 32.5797 35.262 32.2231 34.9057L26.1611 28.835L24.2695 24.2499L28.8483 26.1442L34.9103 32.2148C35.266 32.572 35.4658 33.0558 35.4658 33.5603C35.4657 34.0647 35.2659 34.5486 34.9101 34.9057V34.9057Z" fill="black"/>
</svg>
