<svg width="70" height="70" viewBox="0 0 70 70" fill="none" xmlns="http://www.w3.org/2000/svg">
<path d="M22.4667 56.6314C16.0365 52.9057 11.9089 46.7445 10.5394 39.9918L1.87813 42.2983L10.2353 27.8746L24.659 36.2317L16.625 38.3712C17.5689 43.5794 20.6569 48.3595 25.6 51.2236C34.5568 56.4131 46.0291 53.3652 51.2235 44.4C56.418 35.4348 53.3567 23.966 44.3999 18.7765C39.9216 16.1817 34.8131 15.6484 30.1737 16.8767L28.5673 10.8445C34.7548 9.20395 41.5677 9.91218 47.5333 13.3686C59.4812 20.2913 63.5541 35.5853 56.6314 47.5333C49.7087 59.4812 34.4147 63.5541 22.4667 56.6314ZM25.8907 46.5727L34.2479 32.149L45.0636 38.4156L42.9731 42.0236L35.7654 37.8475L29.4988 48.6632L25.8907 46.5727Z" fill="#2070C9"/>
</svg>
